<svg version="1.1" id="Layer_1" xmlns="http://www.w3.org/2000/svg" xmlns:xlink="http://www.w3.org/1999/xlink" x="0px" y="0px"
	 width="100%" viewBox="0 0 500 500" enable-background="new 0 0 500 500" xml:space="preserve">
<!-- <path fill="#0A0A0A" opacity="1.000000" stroke="none" 
	d="
M341.000000,501.000000 
	C228.666687,501.000000 116.833366,500.979889 5.000178,501.095337 
	C1.576385,501.098877 0.903033,500.423889 0.905298,497.000031 
	C1.013776,333.000122 1.013758,169.000153 0.905339,5.000262 
	C0.903076,1.576995 1.575748,0.903019 4.999861,0.905284 
	C168.999756,1.013775 332.999725,1.013760 496.999634,0.905354 
	C500.422638,0.903092 501.097015,1.575402 501.094757,4.999742 
	C500.986237,168.999634 500.986237,332.999603 501.094604,496.999512 
	C501.096893,500.422272 500.426270,501.106750 497.000153,501.097473 
	C445.167084,500.957031 393.333466,501.000000 341.000000,501.000000 
z"/> -->
<path fill="#F54008" opacity="1.000000" stroke="none" 
	d="
M315.751495,252.825394 
	C315.277893,263.555298 311.466064,272.334503 303.561005,279.736633 
	C300.200256,269.103302 306.130707,253.336502 315.502411,246.242065 
	C316.871552,245.205627 320.587280,244.884293 318.103271,241.734756 
	C316.137451,239.242233 313.626953,237.709091 310.329193,239.920273 
	C305.045074,243.463318 301.506104,248.429779 298.620758,253.954895 
	C295.020569,260.848846 292.248535,262.075195 284.651367,259.695251 
	C281.336761,258.656921 282.478119,261.095032 282.354034,262.379608 
	C281.556549,270.635742 278.135406,277.703552 272.733154,283.874237 
	C272.112488,284.583160 271.062805,285.547211 270.372345,285.431976 
	C268.967041,285.197479 269.127380,283.632904 269.147400,282.542389 
	C269.364349,270.728241 272.631287,260.259521 282.357941,252.605225 
	C283.765106,251.497879 287.273743,251.044205 284.760956,248.015121 
	C282.881805,245.749954 280.467773,244.054749 277.392242,246.133377 
	C275.746246,247.245850 274.095306,248.450027 272.753754,249.897491 
	C265.741669,257.463196 261.509308,266.322571 260.756836,276.703674 
	C260.575012,279.212097 260.666260,281.730988 261.782196,284.049744 
	C264.905060,290.538574 271.437714,291.552795 276.226196,286.122406 
	C280.926849,280.791565 284.281372,274.548767 285.483795,267.579102 
	C286.101135,264.000763 287.146667,262.763519 290.644318,263.279968 
	C291.847717,263.457672 293.158752,262.906250 294.935394,262.598846 
	C294.534851,266.355713 293.761536,269.747955 293.925659,273.215942 
	C294.161316,278.194641 296.844208,281.299805 301.256683,282.910126 
	C305.597778,284.494415 308.157532,281.443237 310.444305,278.555695 
	C314.307343,273.677704 317.502014,268.224579 318.515900,262.124634 
	C319.208130,257.959930 320.528564,256.271515 324.678406,256.858246 
	C325.556580,256.982391 326.516357,256.529602 327.906189,256.247864 
	C327.417450,259.014526 326.941742,261.411438 326.585693,263.826019 
	C326.344086,265.464478 326.035248,267.146637 326.166138,268.776337 
	C326.545746,273.502136 330.090668,275.768738 333.937775,276.875275 
	C337.766418,277.976501 337.514496,273.667419 338.718475,271.707275 
	C341.058929,267.897003 342.776947,263.704376 344.901825,259.354492 
	C345.248260,258.905182 345.445709,258.771454 345.955811,258.811493 
	C345.063904,264.361816 344.122345,269.506134 350.746063,272.457458 
	C353.380371,273.631226 354.654541,273.605591 356.278809,270.925201 
	C362.918854,259.967346 369.867645,249.196991 376.650299,238.324890 
	C379.180359,234.269440 382.388214,231.692566 387.401581,233.399033 
	C392.413025,235.104828 394.779022,239.067505 394.973999,244.099869 
	C395.278839,251.967316 391.559448,258.156982 386.023987,263.405457 
	C378.758362,270.294403 369.592255,273.324493 360.261749,275.965332 
	C344.483154,280.431213 328.187561,281.757782 312.018707,283.898010 
	C292.484070,286.483765 273.272125,290.508911 255.395050,299.177612 
	C238.089355,307.569305 225.720871,320.872864 217.754868,338.325287 
	C217.359283,339.191986 216.606110,340.029907 217.607040,341.423645 
	C223.679062,337.759216 230.104141,334.876648 237.227966,333.623749 
	C244.493729,332.345886 251.140717,333.409851 257.195435,337.640411 
	C258.606384,338.626221 259.705536,339.975983 260.958435,337.457001 
	C267.513306,324.278381 279.259491,317.076447 291.909180,311.122192 
	C312.968384,301.209564 335.617462,296.199921 357.897156,290.025208 
	C373.627533,285.665588 387.661560,278.395294 397.110382,264.243011 
	C401.440430,279.464355 383.081207,324.886017 363.043854,348.038666 
	C342.137390,372.195496 316.069031,388.132050 284.994110,395.533417 
	C203.711411,414.893219 122.331329,362.154602 106.655968,279.514374 
	C91.020752,197.085831 146.560715,120.283913 226.775146,106.985535 
	C314.548859,92.433960 389.172943,156.061340 397.517914,235.618530 
	C395.674500,235.371796 394.908630,233.739349 393.703735,232.835831 
	C386.530426,227.456863 378.870850,228.850266 374.113220,236.476151 
	C368.386383,245.655502 362.637482,254.821106 356.668732,264.243896 
	C356.151154,264.573090 355.863007,264.651031 355.391663,264.320404 
	C359.920410,242.929657 366.932068,222.709015 375.478546,203.006622 
	C377.319702,198.762207 375.795197,195.513474 371.208557,194.295792 
	C368.413666,193.553787 368.285431,195.866714 367.611267,197.369736 
	C362.504913,208.753906 358.468048,220.549820 354.418549,232.332840 
	C353.440887,235.177597 352.833527,236.891495 349.657715,234.185028 
	C346.996368,231.916977 344.217010,232.695999 341.562988,234.902390 
	C337.107025,238.606735 333.990479,243.240479 331.417542,248.332153 
	C328.282532,254.536240 323.286133,256.078613 316.766907,252.668762 
	C316.190094,252.518600 315.946869,252.489883 315.751495,252.825394 
z"/>
<path fill="#EB3E07" opacity="1.000000" stroke="none" 
	d="
M335.432251,270.191559 
	C336.491211,257.517365 340.610138,246.549088 350.968964,238.861130 
	C351.380737,239.062851 351.792542,239.264572 352.204346,239.466293 
	C347.257812,249.451889 342.311310,259.437500 337.188110,269.714600 
	C336.643768,270.356018 336.208282,270.498047 335.432251,270.191559 
z"/>
<path fill="#8F2808" opacity="1.000000" stroke="none" 
	d="
M346.496338,258.720703 
	C346.065582,258.996216 345.862762,259.007233 345.355377,259.028564 
	C345.555817,257.861023 346.060760,256.683197 346.747437,255.246368 
	C346.860870,256.143677 346.792572,257.299927 346.496338,258.720703 
z"/>
<path fill="#B83208" opacity="1.000000" stroke="none" 
	d="
M335.068787,270.270599 
	C335.570862,269.977020 335.982208,270.003113 336.702484,270.017639 
	C336.972534,271.010162 336.669647,272.174072 335.712433,272.301697 
	C334.496124,272.463806 335.149506,271.220062 335.068787,270.270599 
z"/>
<path fill="#A62E07" opacity="1.000000" stroke="none" 
	d="
M355.098511,264.208344 
	C355.418365,263.999054 355.628265,264.086273 356.138733,264.334320 
	C356.242859,265.043518 356.119385,265.740112 355.359070,265.629303 
	C355.184662,265.603912 355.109436,264.897736 355.098511,264.208344 
z"/>
<path fill="#8F2808" opacity="1.000000" stroke="none" 
	d="
M346.963196,255.002106 
	C346.973694,255.007065 346.938354,254.894119 346.933777,254.940765 
	C346.929199,254.987411 346.952698,254.997147 346.963196,255.002106 
z"/>
<path fill="#150C0A" opacity="1.000000" stroke="none" 
	d="
M278.252869,187.843048 
	C273.894470,194.036850 269.906677,200.157516 265.524200,205.981155 
	C261.915649,210.776382 258.136261,210.018753 255.659195,204.381561 
	C253.901001,200.380341 254.455139,195.885727 252.680389,190.660858 
	C249.205399,197.343887 246.242065,203.270477 243.040909,209.065689 
	C242.032776,210.890793 241.986877,214.723816 238.127960,212.705215 
	C235.037506,211.088577 231.633621,209.520767 233.957138,204.834686 
	C234.904663,202.923706 235.383286,200.780228 236.162476,198.367157 
	C236.150497,197.685257 236.024155,197.390381 235.710541,196.658295 
	C235.550430,196.209473 235.526764,195.732574 235.530182,195.494171 
	C235.533585,195.255753 235.527145,194.779327 235.406784,194.573730 
	C245.710251,177.374161 249.346558,157.836212 255.914398,139.396057 
	C257.136169,135.965714 255.140793,135.965805 252.711151,135.933197 
	C236.502869,135.715576 220.925705,138.687576 205.995758,145.014206 
	C204.499451,145.648270 203.139297,146.682465 201.402206,146.590866 
	C199.909866,143.386276 201.656693,142.254654 204.350067,141.123245 
	C259.320343,118.032043 324.880035,137.960983 356.029541,192.689819 
	C358.010834,196.170807 362.040131,199.537643 358.373596,204.369415 
	C356.388947,203.936249 356.308929,202.013351 355.619324,200.631836 
	C349.612122,188.596802 341.749023,177.940262 332.162628,168.509613 
	C329.924774,166.308136 328.776123,165.555862 327.043091,169.204529 
	C321.083405,181.751770 313.392548,193.225937 304.067444,203.538956 
	C301.426361,206.459869 301.190857,210.193130 299.946503,213.568558 
	C297.697998,219.668015 295.485840,225.769302 292.175293,231.387283 
	C289.660339,235.655136 286.380859,239.146881 281.413361,240.531250 
	C275.658081,242.135132 271.285400,239.863968 269.404968,234.412048 
	C278.842560,235.880936 283.834473,232.033112 288.122314,219.169968 
	C287.718018,218.428131 287.593964,218.284821 287.413788,217.862808 
	C287.427979,217.408096 287.498291,217.232071 287.589508,216.772522 
	C291.255463,214.311157 291.874542,210.502579 292.857910,206.860992 
	C293.928162,202.897690 295.103546,198.962784 296.322479,194.640839 
	C296.485443,193.636734 296.366852,193.102356 295.448364,192.985428 
	C293.441895,195.761765 291.847198,198.512802 289.888092,200.973785 
	C288.564148,202.636856 287.624329,205.695129 284.660614,204.521759 
	C281.386871,203.225647 278.161194,201.304092 278.160034,197.148361 
	C278.159271,194.350876 278.833252,191.553223 279.326050,188.346649 
	C279.177795,187.629486 278.843384,187.541107 278.252869,187.843048 
z"/>
<path fill="#120B0A" opacity="1.000000" stroke="none" 
	d="
M195.543793,306.490540 
	C202.166153,294.923248 208.944641,283.893280 210.461288,270.498962 
	C211.012009,265.635315 213.184067,260.924652 214.872437,256.236359 
	C215.494019,254.510284 215.561966,251.180237 218.868378,252.728745 
	C221.598038,254.007111 225.721664,254.407288 224.421310,259.399750 
	C221.309601,271.346588 219.300720,283.489685 218.731522,295.832550 
	C218.555710,299.645294 218.865097,303.479004 218.907791,307.303619 
	C218.958405,311.838257 220.803314,311.433533 223.631897,309.176300 
	C229.352570,304.611176 233.413330,298.711273 236.817017,292.405518 
	C249.132370,269.589722 256.103760,245.398041 254.896561,219.227783 
	C254.760269,216.273163 254.227417,213.336838 253.834625,210.022003 
	C257.748444,210.716995 259.296722,212.864700 259.985504,216.317703 
	C263.902191,235.952728 260.305634,254.702438 253.513077,273.085693 
	C249.461243,284.051544 244.640488,294.625610 237.107086,303.738953 
	C234.335846,307.091370 231.325912,310.192383 227.637726,312.547241 
	C218.173737,318.589966 209.811020,314.850006 208.047363,303.853271 
	C207.822861,302.453461 208.302078,300.869720 206.868286,299.270355 
	C204.350052,303.089508 201.976181,306.781067 199.499374,310.402252 
	C198.469009,311.908691 197.309799,313.351318 196.051788,314.673187 
	C192.425797,318.483185 189.055344,323.748871 182.866455,321.710632 
	C176.083633,319.476746 171.169846,314.666901 169.825012,307.217377 
	C167.641907,295.124420 169.788330,283.342194 172.835678,271.688049 
	C176.177856,258.906372 180.583679,246.558441 188.688751,235.876236 
	C191.951904,231.575516 194.685059,231.440872 198.373352,235.150055 
	C199.888489,236.673767 200.076797,237.773590 198.729294,239.785599 
	C184.745789,260.665039 179.638885,283.763214 182.022903,308.637695 
	C182.164276,310.112732 182.579681,311.587433 183.057114,312.998138 
	C183.721222,314.960449 183.556732,318.078186 185.720749,318.390625 
	C187.750320,318.683624 188.993347,315.891388 190.277954,314.209137 
	C192.092377,311.833130 193.674408,309.279633 195.543793,306.490540 
z"/>
<path fill="#120B0A" opacity="1.000000" stroke="none" 
	d="
M181.613068,149.265915 
	C168.472900,161.928696 158.698502,177.026459 148.370956,191.730011 
	C140.783585,202.532318 138.807373,215.349747 134.502625,227.333008 
	C132.929855,231.711166 131.689651,236.208313 130.270569,240.642487 
	C129.890289,241.830704 129.920822,243.384277 127.837555,242.994278 
	C123.823662,242.242889 120.874428,237.353394 122.206116,233.398254 
	C131.172943,206.766663 139.738190,180.008011 147.768204,153.077774 
	C148.258240,151.434387 147.727463,148.292526 150.881165,149.107208 
	C153.780533,149.856216 156.863571,151.355667 156.090851,155.240631 
	C155.119888,160.122314 153.757523,164.929932 152.461182,169.741806 
	C151.569611,173.051208 150.503098,176.313477 149.427185,179.887863 
	C151.921295,179.818176 152.400818,177.807678 153.345200,176.474625 
	C160.087021,166.957947 167.031250,157.605118 175.308792,149.339554 
	C177.900711,146.751373 180.708939,144.415298 183.964325,142.633194 
	C187.126450,140.902161 189.675522,142.051956 192.241074,143.929886 
	C195.079880,146.007843 193.591309,148.301102 192.751877,150.616547 
	C181.858398,180.664963 172.102005,211.036819 166.634705,242.625534 
	C166.492828,243.445297 166.618195,244.409454 166.222610,245.068344 
	C165.136505,246.877441 168.546326,250.629929 164.044083,250.767075 
	C159.842941,250.895065 156.074448,247.240387 156.215057,243.395035 
	C156.446579,237.063599 157.470520,230.808594 158.893295,224.641312 
	C164.698181,199.479034 172.401657,174.910934 182.212708,150.628021 
	C182.562439,149.812317 182.420822,149.517700 181.613068,149.265915 
z"/>
<path fill="#080200" opacity="1.000000" stroke="none" 
	d="
M174.843674,341.345703 
	C172.884201,345.074829 168.793137,347.220978 170.030823,352.300323 
	C170.457016,354.049377 168.522919,357.379333 165.075424,354.679657 
	C163.640442,353.555908 161.990143,352.711578 160.480759,351.677429 
	C157.986404,349.968475 158.136871,347.030029 160.755096,345.673706 
	C166.061264,342.924866 171.594894,334.380768 172.053436,328.228577 
	C172.274384,325.264252 174.890533,323.894562 177.429214,325.539612 
	C181.046829,327.883789 185.882858,329.625885 187.778351,332.989105 
	C189.664383,336.335541 185.910263,340.677948 185.053009,344.693085 
	C184.918365,345.323853 184.878967,345.974915 184.724442,347.163391 
	C188.692780,345.555328 190.882309,342.423859 193.535049,339.981262 
	C195.422775,338.243103 196.839188,337.737274 199.044159,339.410217 
	C201.688354,341.416412 204.627991,343.028687 207.375702,344.905243 
	C208.390915,345.598602 210.241150,345.950928 209.776291,347.627106 
	C209.399521,348.985626 208.625092,350.389893 207.145416,351.085236 
	C202.336823,353.344940 196.060928,363.092651 196.070053,368.278961 
	C196.075165,371.186554 193.436127,372.846893 191.024109,371.386414 
	C188.747253,370.007690 186.615799,368.376251 184.287735,367.097504 
	C180.304642,364.909698 183.177917,361.755463 184.566147,361.587769 
	C189.521210,360.989349 189.614304,356.435028 192.128021,353.535583 
	C192.206726,353.031616 192.196121,352.864441 192.101654,352.588745 
	C191.862122,352.553772 191.706451,352.627258 191.432861,352.471069 
	C188.446289,354.748718 185.336151,357.034149 182.773239,359.822510 
	C179.897629,362.951050 177.491730,363.224152 174.039413,360.598877 
	C171.718307,358.833801 170.708603,357.542816 171.888046,354.601532 
	C173.360977,350.928375 174.276733,347.031769 175.507751,342.859131 
	C175.515213,341.961914 175.342255,341.474396 174.843674,341.345703 
z"/>
<path fill="#0A0A0A" opacity="1.000000" stroke="none" 
	d="
M188.838409,218.747574 
	C197.072098,209.913345 203.427551,199.628052 209.278687,189.028061 
	C211.949356,184.189880 214.658661,179.450089 219.145020,176.048172 
	C223.429718,172.799164 229.659119,175.200363 230.643250,180.547699 
	C231.368240,184.487045 230.021667,188.092911 228.262100,191.555511 
	C227.615417,192.828079 226.743057,193.261871 225.474670,192.348846 
	C224.446167,191.608505 223.699066,190.801926 224.610535,189.471436 
	C226.429169,186.816742 227.255219,183.826004 227.766129,180.086716 
	C224.154572,181.053574 222.364197,183.559372 220.854523,186.139893 
	C216.121826,194.229568 213.882858,202.964691 214.697678,212.372513 
	C214.793045,213.473679 214.537888,214.925461 215.705841,215.535095 
	C217.212769,216.321701 218.163071,214.885864 219.065231,214.073029 
	C225.288330,208.466125 229.987473,201.590744 235.067017,194.611023 
	C235.429337,194.497772 235.572250,194.627411 235.928848,194.952240 
	C236.764969,196.145905 236.344208,196.909454 235.309357,197.808502 
	C231.129074,203.401611 227.536606,209.026825 222.926788,213.856277 
	C217.143784,219.914871 209.844757,218.566360 206.353745,210.849854 
	C205.239456,208.386795 204.883865,205.758957 205.118118,202.714157 
	C202.773056,203.322281 202.274292,205.240860 201.300369,206.541824 
	C197.815231,211.197311 194.409286,215.915909 191.104752,220.701355 
	C188.945099,223.828842 186.640900,224.493835 183.103333,222.638000 
	C179.476028,220.735077 179.212723,218.202103 180.176956,214.783646 
	C183.206833,204.041855 187.511124,193.773682 191.744019,183.482605 
	C192.389069,181.914352 192.621948,178.798431 195.577362,180.448196 
	C197.827957,181.704529 200.834869,182.800278 199.117752,186.837982 
	C195.542999,195.243774 192.083801,203.717789 189.801224,212.598663 
	C189.307632,214.519058 189.020676,216.492538 188.838409,218.747574 
z"/>
<path fill="#0A0A0A" opacity="1.000000" stroke="none" 
	d="
M320.339661,149.584900 
	C283.308167,126.074402 244.646057,122.256058 204.044800,137.901825 
	C202.573029,138.468994 200.827164,140.336105 199.532272,137.425797 
	C198.199936,134.431351 200.784622,134.564026 202.234421,133.921921 
	C247.131180,114.036980 303.132355,124.429420 339.590332,159.334427 
	C348.435394,167.802734 355.870392,177.345917 362.180481,187.824722 
	C363.840179,190.580856 364.267242,192.961807 361.469238,195.848938 
	C351.531830,177.136063 338.058136,161.679306 320.339661,149.584900 
z"/>
<path fill="#0A0A0A" opacity="1.000000" stroke="none" 
	d="
M251.277084,363.371521 
	C251.156158,354.273773 258.635742,349.242218 266.922638,352.503510 
	C268.550903,353.144287 269.236877,353.963684 270.905670,351.787750 
	C273.145538,348.867218 277.908905,350.919403 278.343597,354.690857 
	C278.609375,356.996674 280.442444,360.172943 277.775238,361.437195 
	C275.230194,362.643524 271.710846,363.402893 269.587646,359.568146 
	C268.758179,358.070038 266.827484,357.867096 265.074707,358.058472 
	C263.793304,358.198364 262.804749,358.821716 262.503510,360.060760 
	C262.150391,361.513123 263.320984,362.254364 264.387360,362.578827 
	C267.404022,363.496704 270.519379,364.092468 273.530609,365.025604 
	C279.332214,366.823425 281.587219,369.729370 281.164917,374.547577 
	C280.788971,378.836853 277.197815,382.156158 271.999573,383.006287 
	C271.507599,383.086761 271.006012,383.110992 270.508179,383.152985 
	C266.038605,383.530151 261.608307,380.712341 256.974609,383.947571 
	C254.230042,385.863831 252.588287,383.569366 252.654968,380.429138 
	C252.704880,378.077942 250.520172,374.886902 253.134308,373.606720 
	C255.655838,372.371857 259.180206,371.644073 261.628906,375.034302 
	C262.668762,376.473969 264.646851,376.238190 266.314087,376.107117 
	C267.676758,375.999939 269.154602,375.704987 269.159698,373.975769 
	C269.163971,372.530182 267.824951,372.282806 266.671600,372.038177 
	C264.070801,371.486603 261.441223,371.041809 258.877014,370.353638 
	C255.330963,369.401947 252.499039,367.514557 251.277084,363.371521 
z"/>
<path fill="#0A0A0A" opacity="1.000000" stroke="none" 
	d="
M231.578857,352.800964 
	C236.049408,350.332184 239.917053,352.878815 243.770096,354.021790 
	C245.351151,354.490784 244.408340,357.942993 243.542862,358.336975 
	C239.812729,360.034943 240.682831,363.493744 239.854797,366.281647 
	C239.192841,368.510468 238.804092,370.825714 238.063400,373.024902 
	C235.564774,380.443604 230.831421,383.309998 223.601685,381.919739 
	C216.035919,380.464844 211.977753,375.322540 212.635406,367.725616 
	C212.892593,364.754852 213.648209,361.830505 214.056427,358.868408 
	C214.347122,356.759125 215.616013,354.908020 213.465973,352.511169 
	C211.591263,350.421234 214.182373,347.548370 217.317154,348.064941 
	C219.774139,348.469849 222.211411,349.025269 224.629898,349.624878 
	C227.480331,350.331573 228.548416,353.386780 226.384155,355.279663 
	C221.545319,359.511688 222.645172,365.302765 222.001480,370.617798 
	C221.776703,372.473816 223.058655,373.661621 224.947479,374.050568 
	C227.302414,374.535461 229.132935,373.562622 229.625778,371.394623 
	C230.801010,366.224823 234.339691,361.226837 231.089157,355.586243 
	C230.769806,355.032043 231.303680,353.986176 231.578857,352.800964 
z"/>
<path fill="#0A0A0A" opacity="1.000000" stroke="none" 
	d="
M310.377441,337.922699 
	C312.057495,333.503754 314.751556,330.722046 319.162964,330.223938 
	C322.169800,329.884430 321.629669,326.379425 324.155212,325.337067 
	C326.183380,324.499939 327.257355,323.979614 328.500305,326.086700 
	C329.340302,327.510651 330.639893,328.685669 331.351135,330.157074 
	C332.044708,331.591797 334.950287,332.823761 332.885193,334.615692 
	C330.939636,336.303864 329.105652,339.606262 325.376709,336.884308 
	C322.880920,335.062531 320.339111,336.048279 319.348083,338.871490 
	C318.186554,342.180389 320.013641,345.022980 321.985443,347.544891 
	C323.792084,349.855530 326.070160,351.540161 329.254150,350.991638 
	C332.059570,350.508362 333.671356,348.545776 334.103607,345.937073 
	C334.806793,341.693359 337.526703,342.785400 340.047272,343.453064 
	C343.575134,344.387573 341.833344,346.739441 341.175079,348.592163 
	C338.419739,356.347504 330.970917,361.106537 323.399750,360.061249 
	C316.406860,359.095825 310.040741,351.562927 309.752502,343.748627 
	C309.685883,341.942108 310.052765,340.119598 310.377441,337.922699 
z"/>
<path fill="#0A0A0A" opacity="1.000000" stroke="none" 
	d="
M124.427734,269.555786 
	C123.936508,263.153290 123.424522,257.191742 123.193077,251.219299 
	C123.136551,249.760712 122.050781,247.146759 125.115685,247.166855 
	C128.026443,247.185913 127.796188,249.496292 127.777237,251.524323 
	C127.606789,269.757507 131.479813,287.122559 139.009430,303.697784 
	C142.317261,310.979462 146.350525,317.847931 151.062912,324.299927 
	C152.270401,325.953156 153.090424,327.226257 151.093338,328.852081 
	C148.550690,330.922089 148.310852,328.041718 147.623550,327.101746 
	C135.131622,310.016968 127.423233,290.968323 124.427734,269.555786 
z"/>
<path fill="#0A0A0A" opacity="1.000000" stroke="none" 
	d="
M301.518188,374.614838 
	C299.284454,375.028900 297.430908,377.385590 295.682098,375.727478 
	C294.044983,374.175262 293.657898,372.175140 295.479462,369.730957 
	C296.212280,368.747620 294.747009,365.638458 293.657898,363.884399 
	C291.232239,359.977661 292.290527,354.082153 286.286224,352.006836 
	C284.745331,351.474274 283.489014,347.677063 287.626556,346.547089 
	C290.170227,345.852417 292.583984,344.678284 295.049866,343.703796 
	C296.258881,343.226013 297.692078,342.220917 298.574097,343.761108 
	C299.250977,344.943054 300.774048,346.791656 299.549255,347.785461 
	C297.151855,349.730774 298.800018,351.363403 299.379211,353.025604 
	C300.523224,356.308655 301.808563,359.550140 303.205627,362.734131 
	C303.922852,364.368774 303.882660,366.639465 306.905548,366.535004 
	C308.397827,366.483490 308.582520,368.771942 308.940216,370.146332 
	C309.443909,372.081451 307.581268,372.124939 306.506073,372.638458 
	C305.015442,373.350372 303.424805,373.852905 301.518188,374.614838 
z"/>
<path fill="#0A0A0A" opacity="1.000000" stroke="none" 
	d="
M139.769333,285.093079 
	C143.579620,297.468842 148.958649,308.642700 156.137878,318.939636 
	C157.079056,320.289490 158.431458,321.540436 156.440445,323.120392 
	C154.091614,324.984253 153.619629,322.580292 152.818970,321.442169 
	C138.022766,300.409119 130.796906,276.995300 130.864975,251.298416 
	C130.870117,249.356766 130.889847,247.316605 133.449234,247.423447 
	C136.302231,247.542587 134.879196,249.978897 134.886932,251.260193 
	C134.955551,262.636444 136.627777,273.763031 139.769333,285.093079 
z"/>
<path fill="#0A0A0A" opacity="1.000000" stroke="none" 
	d="
M355.543701,318.507690 
	C362.137848,310.660034 362.796204,299.373718 371.550812,293.323944 
	C370.231445,301.025696 366.902985,307.786865 363.215057,314.376495 
	C361.274841,317.843140 359.157593,321.223083 356.911682,324.499237 
	C356.173859,325.575470 355.743835,328.034058 353.288391,326.251831 
	C351.301178,324.809448 352.073975,323.573822 353.150940,322.133514 
	C353.943451,321.073700 354.617401,319.925171 355.543701,318.507690 
z"/>
<path fill="#0A0A0A" opacity="1.000000" stroke="none" 
	d="
M361.956390,300.064270 
	C358.737030,307.193298 355.202271,313.739075 350.947235,319.873657 
	C350.200592,320.950104 349.697540,322.869904 347.596741,321.482300 
	C345.862335,320.336700 346.228607,319.230865 347.237183,317.793365 
	C351.048157,312.361694 354.258575,306.573853 357.011414,300.542786 
	C357.852966,298.699036 359.228729,297.540405 361.085297,297.296997 
	C363.756165,296.946808 362.358734,298.654816 361.956390,300.064270 
z"/>
<path fill="#0A0A0A" opacity="1.000000" stroke="none" 
	d="
M201.370087,158.444336 
	C204.518951,155.965561 206.094574,158.573181 207.901337,160.001175 
	C210.149750,161.778183 207.536041,162.744171 207.027908,164.019562 
	C206.299683,165.847321 205.434448,167.630096 204.499496,169.362869 
	C203.746033,170.759293 203.853210,173.554733 201.074112,172.293350 
	C198.721619,171.225586 196.032623,170.023483 196.979416,166.519089 
	C197.764557,163.613037 199.409851,161.133759 201.370087,158.444336 
z"/>
<path fill="#0A0A0A" opacity="1.000000" stroke="none" 
	d="
M287.282562,216.615463 
	C287.674438,216.735153 287.738464,216.981339 287.899170,217.596680 
	C288.127991,218.150116 288.260223,218.334412 288.220062,218.812012 
	C288.047638,219.105331 288.074982,219.004974 288.125153,219.018555 
	C283.529694,219.652802 280.337585,224.604630 274.950806,223.236984 
	C279.123535,221.339386 283.295685,219.496307 287.282562,216.615463 
z"/>
<path fill="#A62E07" opacity="1.000000" stroke="none" 
	d="
M235.333588,198.018509 
	C235.336838,197.258423 235.645660,196.497910 236.048508,195.442413 
	C236.142548,195.147446 236.566833,195.089706 236.745392,195.011993 
	C237.381271,195.836731 237.155533,196.695038 236.502518,197.766922 
	C236.046158,198.000549 235.842636,198.009308 235.333588,198.018509 
z"/>
<path fill="#A62E07" opacity="1.000000" stroke="none" 
	d="
M295.412018,193.303894 
	C295.437561,192.349014 295.910797,191.308884 296.673309,191.607147 
	C297.427856,191.902252 297.044678,193.017990 296.605072,194.026886 
	C296.151978,194.001953 295.892120,193.737762 295.412018,193.303894 
z"/>
<path fill="#922908" opacity="1.000000" stroke="none" 
	d="
M278.402161,188.027252 
	C278.150513,187.171753 278.534973,186.511032 279.455505,186.365616 
	C279.510559,186.356918 279.687042,187.116928 279.626862,187.728455 
	C279.214905,187.961716 278.983093,187.985764 278.402161,188.027252 
z"/>
<path fill="#0A0A0A" opacity="1.000000" stroke="none" 
	d="
M282.469299,258.557068 
	C282.597260,258.479767 282.617401,258.817352 282.617401,258.817352 
	C282.617401,258.817352 282.341370,258.634399 282.469299,258.557068 
z"/>
<path fill="#0A0A0A" opacity="1.000000" stroke="none" 
	d="
M315.958618,253.029816 
	C315.118134,252.623581 315.353638,252.386749 316.269653,252.441406 
	C316.433289,252.547318 316.117889,252.870026 315.958618,253.029816 
z"/>
<path fill="#F23F08" opacity="1.000000" stroke="none" 
	d="
M259.215393,199.672333 
	C258.803101,196.532181 257.148773,194.230865 262.106964,192.705627 
	C269.117767,190.548981 272.662140,174.842697 268.220032,169.731735 
	C264.886841,165.896652 262.419373,166.126953 260.117676,170.579712 
	C256.712311,177.167633 253.373688,183.790024 249.461502,190.170090 
	C250.084503,183.018448 253.010223,176.581070 255.207977,169.968567 
	C258.564331,159.870148 262.341797,149.899979 264.856049,139.552078 
	C265.473877,137.009232 266.594238,136.767059 268.578949,137.080429 
	C289.761200,140.425217 308.710480,148.761948 325.266418,162.447098 
	C326.305817,163.306244 327.243622,163.957901 326.355927,165.701859 
	C320.547272,177.113525 313.952820,187.989975 305.262817,197.599503 
	C307.594482,186.416397 309.867096,175.278290 314.856201,164.937607 
	C315.820648,162.938599 316.921326,161.202820 314.443115,159.305145 
	C311.833252,157.306686 310.029510,156.748749 308.334229,160.339462 
	C303.090302,171.446472 299.273010,183.253784 292.161346,193.450775 
	C290.380341,196.004501 288.686279,198.618881 286.320190,202.148178 
	C285.823029,196.679077 287.054108,192.580673 288.139954,188.591156 
	C289.971832,181.860580 291.823151,175.059647 295.008057,168.830093 
	C296.712097,165.497162 296.067017,163.689972 292.999573,162.067841 
	C289.164398,160.039764 288.654572,163.628479 287.861450,165.449173 
	C282.708435,177.278412 275.556549,187.895218 268.317871,198.465652 
	C266.376373,201.300781 264.647614,204.361771 261.755219,206.592758 
	C259.975189,204.601990 260.022980,202.181808 259.215393,199.672333 
z"/>
<path fill="#E83D07" opacity="1.000000" stroke="none" 
	d="
M260.674530,174.724823 
	C261.625702,173.193344 261.757629,171.565125 263.210968,170.770767 
	C265.057648,176.271210 262.809082,184.488556 258.590942,187.655258 
	C257.520996,188.458511 256.346039,189.312973 255.028900,188.263962 
	C253.731674,187.230820 254.818069,186.103256 255.268875,185.178757 
	C256.934540,181.762909 258.731750,178.411194 260.674530,174.724823 
z"/>
<path fill="#F23F08" opacity="1.000000" stroke="none" 
	d="
M248.330826,191.330811 
	C249.239334,191.608261 249.124863,192.132858 248.578903,192.659256 
	C248.415695,192.297745 248.252472,191.936218 248.330826,191.330811 
z"/>
<path fill="#8F2808" opacity="1.000000" stroke="none" 
	d="
M246.813705,196.758118 
	C246.612000,196.969284 246.414886,196.976990 246.217789,196.984680 
	C246.216858,196.850296 246.191833,196.605133 246.218826,196.599289 
	C246.412720,196.557159 246.617203,196.563599 246.813705,196.758118 
z"/>
<path fill="#F54008" opacity="1.000000" stroke="none" 
	d="
M288.353455,219.127625 
	C287.994995,218.917435 287.942322,218.729523 287.942749,218.253708 
	C288.754883,218.059113 289.036804,218.419769 288.353455,219.127625 
z"/>
<path fill="#8F2808" opacity="1.000000" stroke="none" 
	d="
M247.612152,194.625793 
	C247.394440,194.644272 247.320160,194.545898 247.245895,194.447525 
	C247.415787,194.468002 247.585678,194.488480 247.612152,194.625793 
z"/>
<path fill="#A62E07" opacity="1.000000" stroke="none" 
	d="
M236.974472,194.999786 
	C237.063126,194.937424 237.125412,194.835495 237.215561,194.775284 
	C237.249054,194.752930 237.347839,194.828339 237.416855,194.859161 
	C237.340881,194.913040 237.264893,194.966934 237.056427,194.977539 
	C236.923950,194.934265 236.959167,194.976807 236.974472,194.999786 
z"/>
<path fill="#F54008" opacity="1.000000" stroke="none" 
	d="
M181.544586,149.445419 
	C181.772049,148.836548 182.247559,148.504547 182.723053,148.172531 
	C182.733688,148.733200 182.744308,149.293884 182.524323,150.062988 
	C182.126678,150.088379 181.959656,149.905334 181.544586,149.445419 
z"/>
<path fill="#F54008" opacity="1.000000" stroke="none" 
	d="
M191.536621,352.484406 
	C191.695145,351.853577 192.075348,351.465790 192.827545,351.209290 
	C193.032730,351.861694 192.865906,352.382874 192.458221,353.051453 
	C192.064331,353.041687 191.911316,352.884583 191.536621,352.484406 
z"/>
<path fill="#F54008" opacity="1.000000" stroke="none" 
	d="
M174.859344,341.874329 
	C174.957092,341.219025 175.294800,340.769073 175.632507,340.319122 
	C175.711914,340.867615 175.791336,341.416107 175.726624,342.225586 
	C175.421402,342.350922 175.260345,342.215302 174.859344,341.874329 
z"/>
<path fill="#F54008" opacity="1.000000" stroke="none" 
	d="
M193.050079,351.084503 
	C193.141510,350.795685 193.283463,350.591797 193.425400,350.387909 
	C193.501846,350.674103 193.578308,350.960327 193.427155,351.293518 
	C193.199570,351.340515 193.100601,351.169434 193.050079,351.084503 
z"/>
<path fill="#F54008" opacity="1.000000" stroke="none" 
	d="
M189.056061,219.088501 
	C188.916580,219.141357 188.794907,219.229141 188.673218,219.316910 
	C188.741318,219.160110 188.809402,219.003311 188.990326,219.021317 
	C189.103165,219.196121 189.073853,219.123413 189.056061,219.088501 
z"/>
</svg>